<svg width="19" height="14" viewBox="0 0 19 14" fill="none" xmlns="http://www.w3.org/2000/svg">
<path d="M17.0713 3.83563C17.6259 4.37231 18.1273 4.96936 18.5618 5.61014C19.0266 6.29571 19.0266 7.11428 18.5618 7.79985C17.5679 9.26581 16.2307 10.4863 14.6949 11.3293C13.0957 12.2071 11.2839 12.6711 9.45519 12.6711C8.79998 12.6711 8.14262 12.6121 7.50137 12.4956C7.18185 12.4375 6.97704 12.1658 7.04394 11.8886C7.11085 11.6113 7.42408 11.4336 7.7436 11.4917C8.30535 11.5938 8.88121 11.6455 9.45519 11.6455C12.666 11.6455 15.6894 10.0135 17.5428 7.27983C17.7941 6.90913 17.7941 6.50083 17.5428 6.13013C17.1481 5.54793 16.6933 5.00628 16.191 4.52023C15.9731 4.30934 15.9935 3.98514 16.2366 3.79608C16.4797 3.60704 16.8534 3.62476 17.0713 3.83563ZM0.348609 7.79985C-0.116203 7.11428 -0.116203 6.29571 0.348609 5.61014C1.34255 4.14418 2.67969 2.92369 4.21554 2.08066C5.81468 1.20289 7.62653 0.738888 9.45519 0.738888C11.1069 0.738888 12.747 1.1184 14.2275 1.83941L16.1745 0.150214C16.4054 -0.0500712 16.7796 -0.0500712 17.0104 0.150214C17.2413 0.350466 17.2413 0.675172 17.0104 0.875424L12.6523 4.65641C13.1416 5.2297 13.4314 5.9385 13.4314 6.705C13.4314 8.60717 11.6477 10.1547 9.45519 10.1547C8.57171 10.1547 7.75468 9.9033 7.09393 9.47879L2.73584 13.2598C2.62043 13.3599 2.46915 13.41 2.31791 13.41C2.16667 13.41 2.01539 13.3599 1.89998 13.2598C1.66912 13.0595 1.66912 12.7348 1.89998 12.5346L3.6638 11.0043C2.35884 10.1847 1.22182 9.08777 0.348609 7.79985ZM7.10738 8.0167L10.9671 4.66808C10.5309 4.42353 10.012 4.28091 9.45519 4.28091C7.9145 4.28091 6.66111 5.36835 6.66111 6.705C6.66111 7.1881 6.8255 7.63828 7.10738 8.0167ZM11.803 5.39329L7.94328 8.74191C8.37946 8.98646 8.89835 9.12908 9.45523 9.12908C10.9959 9.12908 12.2493 8.04164 12.2493 6.705C12.2493 6.2219 12.0849 5.77171 11.803 5.39329ZM1.36756 7.27986C2.19293 8.49724 3.27365 9.52331 4.51149 10.2689L6.25806 8.75358C5.76876 8.18029 5.47898 7.47149 5.47898 6.705C5.47898 4.80282 7.26272 3.25528 9.45523 3.25528C10.3387 3.25528 11.1557 3.50669 11.8165 3.9312L13.3558 2.59575C12.1259 2.04386 10.8171 1.76451 9.45523 1.76451C6.2444 1.76451 3.22097 3.39653 1.3676 6.13017C1.1162 6.50086 1.1162 6.90916 1.36756 7.27986Z" fill="#0952A3"/>
</svg>
