<svg width="26" height="21" viewBox="0 0 26 21" fill="none" xmlns="http://www.w3.org/2000/svg">
<path d="M22.8236 1.9795C19.7818 -0.659527 14.8324 -0.659486 11.7906 1.9795C9.71302 3.78194 8.9916 6.43884 9.89082 8.84879L1.10792 16.4687C0.974888 16.5841 0.900146 16.7406 0.900146 16.9038V20.3846C0.900146 20.7244 1.21769 20.9999 1.60937 20.9999H5.62141C5.80957 20.9999 5.98987 20.935 6.12295 20.8196L7.12613 19.9493C7.27935 19.8163 7.35414 19.6299 7.32908 19.4431L7.2039 18.5087L8.69703 18.3866C9.03609 18.3588 9.30461 18.1259 9.33657 17.8318L9.4774 16.5362L10.5546 16.6448C10.7557 16.6652 10.957 16.6099 11.1082 16.4931C11.2592 16.3764 11.3457 16.2092 11.3457 16.0336V14.8877H12.6425C12.8292 14.8877 13.0083 14.8238 13.1411 14.71L14.9031 13.1989C17.6816 13.9803 20.7455 13.3545 22.8237 11.5515C25.8654 8.91253 25.8654 4.61848 22.8236 1.9795ZM21.8206 10.6814C20.0305 12.2344 17.3453 12.7192 14.9798 11.9165C14.7187 11.828 14.4221 11.881 14.2229 12.0519L12.3511 13.6571H10.6364C10.2448 13.6571 9.92723 13.9326 9.92723 14.2724V15.3426L8.92121 15.2412C8.73169 15.2221 8.54136 15.27 8.39306 15.3741C8.2448 15.4782 8.1511 15.6298 8.13318 15.7946L7.9794 17.2091L6.34907 17.3424C6.15912 17.358 5.98444 17.4392 5.86436 17.5679C5.74433 17.6965 5.68906 17.8617 5.71109 18.0261L5.88043 19.2895L5.3276 19.7693H2.31854V17.1587L11.2108 9.44396C11.4101 9.27112 11.4725 9.01236 11.3699 8.78473C10.4446 6.73242 11.0034 4.40286 12.7935 2.84975C15.2824 0.690561 19.3318 0.690561 21.8206 2.84975C24.3093 5.0089 24.3093 8.52219 21.8206 10.6814Z" fill="#0952A3"/>
<path d="M20.8172 3.71974C19.9876 2.99997 18.6378 3.00001 17.8082 3.71974C16.9786 4.43947 16.9786 5.61057 17.8082 6.3303C18.6378 7.05003 19.9876 7.05011 20.8172 6.3303C21.6468 5.61057 21.6468 4.43947 20.8172 3.71974ZM19.8142 5.46013C19.5377 5.70003 19.0878 5.70007 18.8113 5.46013C18.5347 5.22023 18.5347 4.82989 18.8113 4.58996C19.0885 4.34945 19.537 4.34945 19.8142 4.58996C20.0915 4.83047 20.0914 5.21962 19.8142 5.46013Z" fill="#0952A3"/>
</svg>
