<svg width="26" height="21" viewBox="0 0 26 21" fill="none" xmlns="http://www.w3.org/2000/svg">
<path d="M24.3266 15.12C24.2604 15.0745 19.4573 12.0708 18.1389 12.2864C17.5096 12.383 17.1497 12.7554 16.4276 13.5009C16.3114 13.6213 16.0322 13.9097 15.8152 14.1148C15.3588 13.9857 14.9137 13.8285 14.4831 13.6444C12.2607 12.7057 10.465 11.1478 9.38304 9.2197C9.17073 8.84619 8.98954 8.45997 8.84084 8.064C9.07805 7.875 9.41047 7.6328 9.55248 7.5292C10.4077 6.9062 10.8378 6.594 10.9491 6.0466C11.1775 4.9126 7.71772 0.7168 7.68141 0.679C7.52444 0.48445 7.31958 0.322604 7.08166 0.205172C6.84374 0.0877406 6.57871 0.0176597 6.30574 0C4.90345 0 0.899902 4.5059 0.899902 5.2647C0.899902 5.3088 0.973325 9.7916 7.34496 15.4147C13.8199 20.9363 18.9861 21 19.0369 21C19.9123 21 25.1052 17.5266 25.1052 16.31C25.085 16.074 25.0047 15.8448 24.8701 15.639C24.7354 15.4333 24.5498 15.256 24.3266 15.12Z" fill="#0952A3"/>
</svg>
